<svg width="1140" height="300" viewBox="0 0 1140 300" fill="none" xmlns="http://www.w3.org/2000/svg">
<rect width="285" height="75" fill="black" fill-opacity="0" transform="scale(4)"/>
<rect width="285" height="75" fill="black" fill-opacity="0" transform="scale(4)"/>
<path d="M142.095 21.8341H60.5783C0 21.8341 0 82.3006 0 82.3006V174.667C0 235.134 56.7712 238 56.7712 238H111.238L159.36 300L196.796 270.667L166.974 232.2C198.933 217.167 198.933 177.6 198.933 177.6V85.6006C199 25.1341 149.075 21.8341 142.095 21.8341ZM143.932 179.434C143.924 181.31 143.19 183.11 141.883 184.459C140.576 185.807 138.797 186.598 136.919 186.667H76.374C55.0681 186.667 55.0681 162.1 55.0681 162.1V80.4673C55.0491 78.5794 55.767 76.7583 57.0698 75.3896C58.3725 74.0208 60.1578 73.2118 62.0476 73.134H122.626C143.932 73.134 143.932 98.0673 143.932 98.0673V179.434Z" fill="#00FFC8"/>
<path d="M354.72 21.8341H273.203C212.625 21.8341 212.625 82.3006 212.625 82.3006V174.667C212.625 235.134 269.396 238 269.396 238H323.93L371.952 300L409.388 270.667L379.633 232.2C411.592 217.167 411.592 177.6 411.592 177.6V85.6006C411.625 25.1341 361.666 21.8341 354.72 21.8341ZM356.557 179.434C356.576 181.322 355.858 183.143 354.555 184.511C353.252 185.88 351.467 186.689 349.577 186.767H288.966C267.66 186.767 267.66 162.2 267.66 162.2V80.4673C267.641 78.5794 268.359 76.7583 269.661 75.3896C270.964 74.0208 272.749 73.2118 274.639 73.134H335.218C356.523 73.134 356.523 98.0673 356.523 98.0673L356.557 179.434Z" fill="#00FFC8"/>
<path d="M479.35 149.367H568.213V104.667H479.35V68.734H578.833V21.8341H427.187V238.067H582.139V187.5H479.35V149.367Z" fill="#00FFC8"/>
<path d="M648.061 149.367H736.924V104.667H648.061V68.734H747.577V21.8341H595.931V238.067H750.883V187.5H648.061V149.367Z" fill="#00FFC8"/>
<path d="M920.93 74.9673V21.8341H775.195V74.9673H857.413L760.868 181.267L764.542 238.067H927.909V181.267H824.385L920.93 74.9673Z" fill="#00FFC8"/>
<path d="M1095.48 74.9673V21.8341H949.716V74.9673H1031.97L935.39 181.267L939.063 238.067H1102.46V181.267H998.907L1095.48 74.9673Z" fill="#00FFC8"/>
<path d="M1128.18 16.4341C1129.06 16.1065 1129.81 15.512 1130.33 14.7346C1130.85 13.9571 1131.12 13.0358 1131.08 12.1008C1131.08 8.4675 1127.94 7.03417 1124.4 7.03417H1116.82V24.9675H1121.3V18.0675H1123.07C1125.91 18.0675 1126.14 19.6675 1126.41 20.6675C1126.48 22.1154 1126.69 23.5541 1127.01 24.9675H1131.35C1130.94 23.5489 1130.76 22.0753 1130.82 20.6008C1130.58 17.8675 1129.48 16.9675 1128.18 16.4341ZM1123.54 15.1675H1121.37V10.0008H1123.77C1124.71 10.0008 1126.61 10.0008 1126.61 12.3008C1126.61 14.6008 1124.47 15.1675 1123.54 15.1675Z" fill="#00FFC8"/>
<path d="M1123.97 0.000859489C1120.76 -0.0321768 1117.61 0.887826 1114.93 2.64403C1112.24 4.40024 1110.14 6.91342 1108.89 9.86442C1107.64 12.8154 1107.29 16.0711 1107.9 19.218C1108.5 22.3649 1110.03 25.2611 1112.29 27.5388C1114.55 29.8164 1117.44 31.3728 1120.58 32.0102C1123.73 32.6476 1126.99 32.3373 1129.96 31.1188C1132.93 29.9002 1135.47 27.8283 1137.26 25.1663C1139.05 22.5042 1140 19.372 1140 16.1675C1139.99 11.8998 1138.3 7.80785 1135.28 4.78076C1132.27 1.75367 1128.18 0.0359761 1123.9 0.000859489H1123.97ZM1123.97 29.1008C1120.58 29.0481 1117.34 27.6591 1114.97 25.2364C1112.6 22.8138 1111.29 19.554 1111.31 16.1675C1111.29 12.8132 1112.59 9.58373 1114.93 7.18079C1117.28 4.77785 1120.48 3.39554 1123.84 3.33418C1125.52 3.3559 1127.17 3.70793 1128.71 4.37009C1130.26 5.03226 1131.65 5.99155 1132.82 7.19299C1133.99 8.39444 1134.91 9.81443 1135.53 11.3716C1136.15 12.9288 1136.45 14.5925 1136.43 16.2675C1136.45 19.6332 1135.14 22.8725 1132.78 25.2773C1130.43 27.6822 1127.21 29.0568 1123.84 29.1008H1123.97Z" fill="#00FFC8"/>
</svg>
